{"title":"Varannan.vecka.2005.x264.AAC.mp4.Zen_Bud","uid":5709044,"size":1000130830,"categoryP":"other","categoryS":"other","magnet":"?xt=urn:btih:7fa89c9d1d6a9d9f35aac19ca36ef3067192c994&amp;dn=Varannan.vecka.2005.x264.AAC.mp4.Zen_Bud&amp;tr=udp%3A%2F%2Ftracker.openbittorrent.com%3A80&amp;tr=udp%3A%2F%2Fopen.demonii.com%3A1337&amp;tr=udp%3A%2F%2Ftracker.coppersurfer.tk%3A6969&amp;tr=udp%3A%2F%2Fexodus.desync.com%3A6969","seeders":0,"leechers":1,"uploader":"Zen_Bud","files":1,"time":1279813778,"description":"General\nComplete name                    : Varannan.vecka.2005.m4v\nFormat                           : MPEG-4\nCodec ID                         : mp42\nFile size                        : 954 MiB\nDuration                         : 1h 32mn\nOverall bit rate                 : 1 435 Kbps\nWriting application              : HandBrake svn3446 2010071801\n\nVideo\n\nFormat                           : AVC\nDuration                         : 1h 32mn\nBit rate                         : 1 136 Kbps\nWidth                            : 720 pixels\nHeight                           : 554 pixels\nDisplay aspect ratio             : 16:9\nStream size                      : 755 MiB (79%)\nWriting library                  : x264 core 104\n\n\nAudio\n\nFormat                           : AAC\nDuration                         : 1h 32mn\nMaximum bit rate                 : 388 Kbps\nChannel(s)                       : 2 channels\nChannel positions                : Front: L R\nSampling rate                    : 48.0 KHz\nStream size                      : 192 MiB (20%)\nLanguage                         : Swedish\n\n\nText #1\n\nFormat                           : VobSub\nLanguage                         : Swedish","torrent":{"xt":"urn:btih:7fa89c9d1d6a9d9f35aac19ca36ef3067192c994","amp;dn":"Varannan.vecka.2005.x264.AAC.mp4.Zen_Bud","amp;tr":["udp%3A%2F%2Ftracker.openbittorrent.com%3A80","udp%3A%2F%2Fopen.demonii.com%3A1337","udp%3A%2F%2Ftracker.coppersurfer.tk%3A6969","udp%3A%2F%2Fexodus.desync.com%3A6969"],"infoHash":"7fa89c9d1d6a9d9f35aac19ca36ef3067192c994","infoHashBuffer":{"type":"Buffer","data":[127,168,156,157,29,106,157,159,53,170,193,156,163,110,243,6,113,146,201,148]},"announce":[],"urlList":[]}}